<mxfile host="app.diagrams.net" modified="2021-02-18T03:38:29.559Z" agent="5.0 (X11; Linux x86_64) AppleWebKit/537.36 (KHTML, like Gecko) Chrome/88.0.4324.150 Safari/537.36" etag="wfUPHFTXMPzqm-uIj6Eh" version="14.2.9" type="github" pages="4">
  <diagram name="architecture_concept_map" id="l92ARBbJfbiLMqav3IuE">
    <mxGraphModel dx="1422" dy="738" grid="1" gridSize="10" guides="1" tooltips="1" connect="1" arrows="1" fold="1" page="1" pageScale="1" pageWidth="1200" pageHeight="1920" math="0" shadow="0">
      <root>
        <mxCell id="1y4vjJ8w8GmTw1-7sExy-0" />
        <mxCell id="1y4vjJ8w8GmTw1-7sExy-1" parent="1y4vjJ8w8GmTw1-7sExy-0" />
        <mxCell id="1y4vjJ8w8GmTw1-7sExy-41" value="" style="edgeStyle=orthogonalEdgeStyle;curved=0;rounded=1;sketch=0;orthogonalLoop=1;jettySize=auto;html=1;dashed=1;entryX=0;entryY=0.5;entryDx=0;entryDy=0;exitX=1;exitY=0.75;exitDx=0;exitDy=0;" parent="1y4vjJ8w8GmTw1-7sExy-1" source="1y4vjJ8w8GmTw1-7sExy-39" target="1y4vjJ8w8GmTw1-7sExy-40" edge="1">
          <mxGeometry relative="1" as="geometry" />
        </mxCell>
        <mxCell id="1y4vjJ8w8GmTw1-7sExy-39" value="钉钉系统" style="whiteSpace=wrap;html=1;sketch=1;rounded=1;" parent="1y4vjJ8w8GmTw1-7sExy-1" vertex="1">
          <mxGeometry x="40" y="265" width="120" height="280" as="geometry" />
        </mxCell>
        <mxCell id="1y4vjJ8w8GmTw1-7sExy-43" value="" style="edgeStyle=orthogonalEdgeStyle;curved=0;rounded=1;sketch=0;orthogonalLoop=1;jettySize=auto;html=1;endArrow=none;endFill=0;startArrow=classic;startFill=1;entryX=0.5;entryY=1;entryDx=0;entryDy=0;" parent="1y4vjJ8w8GmTw1-7sExy-1" source="1y4vjJ8w8GmTw1-7sExy-40" target="1y4vjJ8w8GmTw1-7sExy-42" edge="1">
          <mxGeometry relative="1" as="geometry" />
        </mxCell>
        <mxCell id="1y4vjJ8w8GmTw1-7sExy-40" value="聚石塔RDS" style="whiteSpace=wrap;html=1;sketch=1;rounded=1;" parent="1y4vjJ8w8GmTw1-7sExy-1" vertex="1">
          <mxGeometry x="320" y="485" width="120" height="60" as="geometry" />
        </mxCell>
        <mxCell id="1y4vjJ8w8GmTw1-7sExy-45" value="" style="edgeStyle=orthogonalEdgeStyle;curved=0;rounded=1;sketch=0;orthogonalLoop=1;jettySize=auto;html=1;entryX=0;entryY=0.75;entryDx=0;entryDy=0;exitX=1;exitY=0.75;exitDx=0;exitDy=0;dashed=1;" parent="1y4vjJ8w8GmTw1-7sExy-1" source="1y4vjJ8w8GmTw1-7sExy-42" target="1y4vjJ8w8GmTw1-7sExy-44" edge="1">
          <mxGeometry relative="1" as="geometry" />
        </mxCell>
        <mxCell id="1y4vjJ8w8GmTw1-7sExy-47" value="" style="edgeStyle=orthogonalEdgeStyle;curved=0;rounded=1;sketch=0;orthogonalLoop=1;jettySize=auto;html=1;startArrow=none;startFill=0;endArrow=classic;endFill=1;entryX=1;entryY=0.25;entryDx=0;entryDy=0;" parent="1y4vjJ8w8GmTw1-7sExy-1" source="1y4vjJ8w8GmTw1-7sExy-42" target="1y4vjJ8w8GmTw1-7sExy-39" edge="1">
          <mxGeometry relative="1" as="geometry">
            <mxPoint x="240" y="345" as="targetPoint" />
          </mxGeometry>
        </mxCell>
        <mxCell id="1y4vjJ8w8GmTw1-7sExy-54" value="" style="edgeStyle=orthogonalEdgeStyle;curved=0;rounded=1;sketch=0;orthogonalLoop=1;jettySize=auto;html=1;startArrow=none;startFill=0;endArrow=classic;endFill=1;exitX=0.25;exitY=0;exitDx=0;exitDy=0;" parent="1y4vjJ8w8GmTw1-7sExy-1" source="1y4vjJ8w8GmTw1-7sExy-42" target="1y4vjJ8w8GmTw1-7sExy-53" edge="1">
          <mxGeometry relative="1" as="geometry" />
        </mxCell>
        <mxCell id="1y4vjJ8w8GmTw1-7sExy-56" value="" style="edgeStyle=orthogonalEdgeStyle;curved=0;rounded=1;sketch=0;orthogonalLoop=1;jettySize=auto;html=1;startArrow=none;startFill=0;endArrow=classic;endFill=1;exitX=0.75;exitY=0;exitDx=0;exitDy=0;" parent="1y4vjJ8w8GmTw1-7sExy-1" source="1y4vjJ8w8GmTw1-7sExy-42" target="1y4vjJ8w8GmTw1-7sExy-55" edge="1">
          <mxGeometry relative="1" as="geometry" />
        </mxCell>
        <mxCell id="1y4vjJ8w8GmTw1-7sExy-42" value="聚石塔代理" style="whiteSpace=wrap;html=1;sketch=1;rounded=1;" parent="1y4vjJ8w8GmTw1-7sExy-1" vertex="1">
          <mxGeometry x="320" y="315" width="120" height="60" as="geometry" />
        </mxCell>
        <mxCell id="1y4vjJ8w8GmTw1-7sExy-49" value="" style="edgeStyle=orthogonalEdgeStyle;curved=0;rounded=1;sketch=0;orthogonalLoop=1;jettySize=auto;html=1;startArrow=none;startFill=0;endArrow=classic;endFill=1;entryX=1;entryY=0.25;entryDx=0;entryDy=0;exitX=0;exitY=0.25;exitDx=0;exitDy=0;" parent="1y4vjJ8w8GmTw1-7sExy-1" source="1y4vjJ8w8GmTw1-7sExy-44" target="1y4vjJ8w8GmTw1-7sExy-42" edge="1">
          <mxGeometry relative="1" as="geometry">
            <mxPoint x="560" y="350" as="targetPoint" />
          </mxGeometry>
        </mxCell>
        <mxCell id="1y4vjJ8w8GmTw1-7sExy-67" value="" style="edgeStyle=orthogonalEdgeStyle;curved=0;rounded=1;sketch=0;orthogonalLoop=1;jettySize=auto;html=1;startArrow=none;startFill=0;endArrow=classic;endFill=1;entryX=0.183;entryY=1.018;entryDx=0;entryDy=0;entryPerimeter=0;exitX=0.25;exitY=0;exitDx=0;exitDy=0;" parent="1y4vjJ8w8GmTw1-7sExy-1" source="1y4vjJ8w8GmTw1-7sExy-44" target="1y4vjJ8w8GmTw1-7sExy-66" edge="1">
          <mxGeometry relative="1" as="geometry" />
        </mxCell>
        <mxCell id="1y4vjJ8w8GmTw1-7sExy-96" value="" style="edgeStyle=orthogonalEdgeStyle;curved=0;rounded=1;sketch=0;orthogonalLoop=1;jettySize=auto;html=1;dashed=1;startArrow=none;startFill=0;endArrow=classic;endFill=1;entryX=0;entryY=0.94;entryDx=0;entryDy=0;entryPerimeter=0;exitX=0.25;exitY=1;exitDx=0;exitDy=0;" parent="1y4vjJ8w8GmTw1-7sExy-1" source="1y4vjJ8w8GmTw1-7sExy-44" target="1y4vjJ8w8GmTw1-7sExy-87" edge="1">
          <mxGeometry relative="1" as="geometry" />
        </mxCell>
        <mxCell id="1y4vjJ8w8GmTw1-7sExy-44" value="飞巴开放平台&lt;br&gt;应用网关" style="whiteSpace=wrap;html=1;sketch=1;rounded=1;" parent="1y4vjJ8w8GmTw1-7sExy-1" vertex="1">
          <mxGeometry x="640" y="265" width="120" height="170" as="geometry" />
        </mxCell>
        <mxCell id="1y4vjJ8w8GmTw1-7sExy-52" value="RDS推送" style="text;html=1;align=center;verticalAlign=middle;resizable=0;points=[];autosize=1;" parent="1y4vjJ8w8GmTw1-7sExy-1" vertex="1">
          <mxGeometry x="170" y="445" width="60" height="20" as="geometry" />
        </mxCell>
        <mxCell id="1y4vjJ8w8GmTw1-7sExy-53" value="Redis Cluster" style="shape=cylinder3;whiteSpace=wrap;html=1;boundedLbl=1;backgroundOutline=1;size=15;rounded=0;sketch=0;" parent="1y4vjJ8w8GmTw1-7sExy-1" vertex="1">
          <mxGeometry x="260" y="165" width="90" height="70" as="geometry" />
        </mxCell>
        <mxCell id="1y4vjJ8w8GmTw1-7sExy-55" value="" style="shape=cylinder3;whiteSpace=wrap;html=1;boundedLbl=1;backgroundOutline=1;size=15;rounded=0;sketch=0;rotation=90;" parent="1y4vjJ8w8GmTw1-7sExy-1" vertex="1">
          <mxGeometry x="435" y="140" width="60" height="120" as="geometry" />
        </mxCell>
        <mxCell id="1y4vjJ8w8GmTw1-7sExy-57" value="MQ Cluster" style="text;html=1;align=center;verticalAlign=middle;resizable=0;points=[];autosize=1;" parent="1y4vjJ8w8GmTw1-7sExy-1" vertex="1">
          <mxGeometry x="430" y="195" width="80" height="20" as="geometry" />
        </mxCell>
        <mxCell id="1y4vjJ8w8GmTw1-7sExy-71" value="" style="edgeStyle=orthogonalEdgeStyle;curved=0;rounded=1;sketch=0;orthogonalLoop=1;jettySize=auto;html=1;dashed=1;startArrow=none;startFill=0;endArrow=classic;endFill=1;exitX=1;exitY=0.75;exitDx=0;exitDy=0;entryX=0.855;entryY=1;entryDx=0;entryDy=-4.35;entryPerimeter=0;" parent="1y4vjJ8w8GmTw1-7sExy-1" source="1y4vjJ8w8GmTw1-7sExy-58" target="1y4vjJ8w8GmTw1-7sExy-70" edge="1">
          <mxGeometry relative="1" as="geometry" />
        </mxCell>
        <mxCell id="1y4vjJ8w8GmTw1-7sExy-89" value="" style="edgeStyle=orthogonalEdgeStyle;curved=0;rounded=1;sketch=0;orthogonalLoop=1;jettySize=auto;html=1;startArrow=none;startFill=0;endArrow=classic;endFill=1;exitX=0.25;exitY=1;exitDx=0;exitDy=0;" parent="1y4vjJ8w8GmTw1-7sExy-1" source="1y4vjJ8w8GmTw1-7sExy-58" edge="1">
          <mxGeometry relative="1" as="geometry">
            <mxPoint x="1010" y="517" as="targetPoint" />
          </mxGeometry>
        </mxCell>
        <mxCell id="1y4vjJ8w8GmTw1-7sExy-58" value="飞巴应用&lt;br&gt;前台系统" style="whiteSpace=wrap;html=1;sketch=1;rounded=1;" parent="1y4vjJ8w8GmTw1-7sExy-1" vertex="1">
          <mxGeometry x="1020" y="265" width="120" height="170" as="geometry" />
        </mxCell>
        <mxCell id="1y4vjJ8w8GmTw1-7sExy-68" value="" style="edgeStyle=orthogonalEdgeStyle;curved=0;rounded=1;sketch=0;orthogonalLoop=1;jettySize=auto;html=1;startArrow=none;startFill=0;endArrow=classic;endFill=1;exitX=0.875;exitY=1.024;exitDx=0;exitDy=0;exitPerimeter=0;entryX=0.833;entryY=0;entryDx=0;entryDy=0;entryPerimeter=0;dashed=1;" parent="1y4vjJ8w8GmTw1-7sExy-1" source="1y4vjJ8w8GmTw1-7sExy-66" target="1y4vjJ8w8GmTw1-7sExy-44" edge="1">
          <mxGeometry relative="1" as="geometry" />
        </mxCell>
        <mxCell id="1y4vjJ8w8GmTw1-7sExy-66" value="其他系统&lt;br&gt;（如微信企业系统）" style="whiteSpace=wrap;html=1;sketch=1;rounded=1;" parent="1y4vjJ8w8GmTw1-7sExy-1" vertex="1">
          <mxGeometry x="570" y="140" width="270" height="85" as="geometry" />
        </mxCell>
        <mxCell id="1y4vjJ8w8GmTw1-7sExy-73" value="" style="edgeStyle=orthogonalEdgeStyle;curved=0;rounded=1;sketch=0;orthogonalLoop=1;jettySize=auto;html=1;startArrow=none;startFill=0;endArrow=classic;endFill=1;exitX=0;exitY=0.25;exitDx=0;exitDy=0;entryX=0.145;entryY=0;entryDx=0;entryDy=4.35;entryPerimeter=0;" parent="1y4vjJ8w8GmTw1-7sExy-1" source="1y4vjJ8w8GmTw1-7sExy-69" target="1y4vjJ8w8GmTw1-7sExy-70" edge="1">
          <mxGeometry relative="1" as="geometry" />
        </mxCell>
        <mxCell id="1y4vjJ8w8GmTw1-7sExy-83" value="" style="edgeStyle=orthogonalEdgeStyle;curved=0;rounded=1;sketch=0;orthogonalLoop=1;jettySize=auto;html=1;dashed=1;startArrow=none;startFill=0;endArrow=classic;endFill=1;entryX=0.855;entryY=1;entryDx=0;entryDy=-4.35;entryPerimeter=0;exitX=1;exitY=0.75;exitDx=0;exitDy=0;" parent="1y4vjJ8w8GmTw1-7sExy-1" source="1y4vjJ8w8GmTw1-7sExy-69" target="1y4vjJ8w8GmTw1-7sExy-81" edge="1">
          <mxGeometry relative="1" as="geometry" />
        </mxCell>
        <mxCell id="1y4vjJ8w8GmTw1-7sExy-69" value="飞巴业务&lt;br&gt;中台系统" style="whiteSpace=wrap;html=1;sketch=1;rounded=1;" parent="1y4vjJ8w8GmTw1-7sExy-1" vertex="1">
          <mxGeometry x="1370" y="265" width="120" height="170" as="geometry" />
        </mxCell>
        <mxCell id="1y4vjJ8w8GmTw1-7sExy-72" value="" style="edgeStyle=orthogonalEdgeStyle;curved=0;rounded=1;sketch=0;orthogonalLoop=1;jettySize=auto;html=1;startArrow=none;startFill=0;endArrow=classic;endFill=1;entryX=1;entryY=0.25;entryDx=0;entryDy=0;exitX=0.145;exitY=1;exitDx=0;exitDy=-4.35;exitPerimeter=0;" parent="1y4vjJ8w8GmTw1-7sExy-1" source="1y4vjJ8w8GmTw1-7sExy-70" target="1y4vjJ8w8GmTw1-7sExy-58" edge="1">
          <mxGeometry relative="1" as="geometry" />
        </mxCell>
        <mxCell id="1y4vjJ8w8GmTw1-7sExy-74" value="" style="edgeStyle=orthogonalEdgeStyle;curved=0;rounded=1;sketch=0;orthogonalLoop=1;jettySize=auto;html=1;startArrow=none;startFill=0;endArrow=classic;endFill=1;entryX=0;entryY=0.75;entryDx=0;entryDy=0;exitX=0.855;exitY=0;exitDx=0;exitDy=4.35;exitPerimeter=0;dashed=1;" parent="1y4vjJ8w8GmTw1-7sExy-1" source="1y4vjJ8w8GmTw1-7sExy-70" target="1y4vjJ8w8GmTw1-7sExy-69" edge="1">
          <mxGeometry relative="1" as="geometry" />
        </mxCell>
        <mxCell id="1y4vjJ8w8GmTw1-7sExy-70" value="" style="shape=cylinder3;whiteSpace=wrap;html=1;boundedLbl=1;backgroundOutline=1;size=15;rounded=0;sketch=0;rotation=90;" parent="1y4vjJ8w8GmTw1-7sExy-1" vertex="1">
          <mxGeometry x="1230" y="290" width="60" height="120" as="geometry" />
        </mxCell>
        <mxCell id="1y4vjJ8w8GmTw1-7sExy-75" value="业务总线" style="text;html=1;align=center;verticalAlign=middle;resizable=0;points=[];autosize=1;" parent="1y4vjJ8w8GmTw1-7sExy-1" vertex="1">
          <mxGeometry x="1220" y="340" width="60" height="20" as="geometry" />
        </mxCell>
        <mxCell id="1y4vjJ8w8GmTw1-7sExy-79" value="飞巴数据&lt;br&gt;后台系统" style="whiteSpace=wrap;html=1;sketch=1;rounded=1;" parent="1y4vjJ8w8GmTw1-7sExy-1" vertex="1">
          <mxGeometry x="1760" y="265" width="120" height="170" as="geometry" />
        </mxCell>
        <mxCell id="1y4vjJ8w8GmTw1-7sExy-82" value="" style="edgeStyle=orthogonalEdgeStyle;curved=0;rounded=1;sketch=0;orthogonalLoop=1;jettySize=auto;html=1;startArrow=none;startFill=0;endArrow=classic;endFill=1;entryX=1;entryY=0.25;entryDx=0;entryDy=0;exitX=0.145;exitY=1;exitDx=0;exitDy=-4.35;exitPerimeter=0;" parent="1y4vjJ8w8GmTw1-7sExy-1" source="1y4vjJ8w8GmTw1-7sExy-81" target="1y4vjJ8w8GmTw1-7sExy-69" edge="1">
          <mxGeometry relative="1" as="geometry" />
        </mxCell>
        <mxCell id="1y4vjJ8w8GmTw1-7sExy-84" value="" style="edgeStyle=orthogonalEdgeStyle;curved=0;rounded=1;sketch=0;orthogonalLoop=1;jettySize=auto;html=1;startArrow=none;startFill=0;endArrow=classic;endFill=1;entryX=0;entryY=0.25;entryDx=0;entryDy=0;exitX=0.145;exitY=0;exitDx=0;exitDy=4.35;exitPerimeter=0;" parent="1y4vjJ8w8GmTw1-7sExy-1" source="1y4vjJ8w8GmTw1-7sExy-81" target="1y4vjJ8w8GmTw1-7sExy-79" edge="1">
          <mxGeometry relative="1" as="geometry" />
        </mxCell>
        <mxCell id="1y4vjJ8w8GmTw1-7sExy-85" value="" style="edgeStyle=orthogonalEdgeStyle;curved=0;rounded=1;sketch=0;orthogonalLoop=1;jettySize=auto;html=1;dashed=1;startArrow=none;startFill=0;endArrow=classic;endFill=1;entryX=0;entryY=0.75;entryDx=0;entryDy=0;exitX=0.855;exitY=0;exitDx=0;exitDy=4.35;exitPerimeter=0;" parent="1y4vjJ8w8GmTw1-7sExy-1" source="1y4vjJ8w8GmTw1-7sExy-81" target="1y4vjJ8w8GmTw1-7sExy-79" edge="1">
          <mxGeometry relative="1" as="geometry" />
        </mxCell>
        <mxCell id="1y4vjJ8w8GmTw1-7sExy-81" value="" style="shape=cylinder3;whiteSpace=wrap;html=1;boundedLbl=1;backgroundOutline=1;size=15;rounded=0;sketch=0;rotation=90;" parent="1y4vjJ8w8GmTw1-7sExy-1" vertex="1">
          <mxGeometry x="1600" y="285" width="60" height="120" as="geometry" />
        </mxCell>
        <mxCell id="1y4vjJ8w8GmTw1-7sExy-86" value="业务总线" style="text;html=1;align=center;verticalAlign=middle;resizable=0;points=[];autosize=1;" parent="1y4vjJ8w8GmTw1-7sExy-1" vertex="1">
          <mxGeometry x="1590" y="335" width="60" height="20" as="geometry" />
        </mxCell>
        <mxCell id="1y4vjJ8w8GmTw1-7sExy-91" value="" style="edgeStyle=orthogonalEdgeStyle;curved=0;rounded=1;sketch=0;orthogonalLoop=1;jettySize=auto;html=1;startArrow=none;startFill=0;endArrow=classic;endFill=1;entryX=0.75;entryY=1;entryDx=0;entryDy=0;dashed=1;exitX=-0.033;exitY=0.551;exitDx=0;exitDy=0;exitPerimeter=0;" parent="1y4vjJ8w8GmTw1-7sExy-1" source="1y4vjJ8w8GmTw1-7sExy-87" target="1y4vjJ8w8GmTw1-7sExy-58" edge="1">
          <mxGeometry relative="1" as="geometry">
            <mxPoint x="1250" y="-60" as="targetPoint" />
          </mxGeometry>
        </mxCell>
        <mxCell id="1y4vjJ8w8GmTw1-7sExy-93" value="" style="edgeStyle=orthogonalEdgeStyle;curved=0;rounded=1;sketch=0;orthogonalLoop=1;jettySize=auto;html=1;startArrow=none;startFill=0;endArrow=classic;endFill=1;entryX=0.75;entryY=1;entryDx=0;entryDy=0;exitX=-0.05;exitY=0.854;exitDx=0;exitDy=0;exitPerimeter=0;" parent="1y4vjJ8w8GmTw1-7sExy-1" source="1y4vjJ8w8GmTw1-7sExy-87" target="1y4vjJ8w8GmTw1-7sExy-44" edge="1">
          <mxGeometry relative="1" as="geometry">
            <mxPoint x="1290" y="690" as="targetPoint" />
          </mxGeometry>
        </mxCell>
        <mxCell id="1y4vjJ8w8GmTw1-7sExy-87" value="" style="shape=cylinder3;whiteSpace=wrap;html=1;boundedLbl=1;backgroundOutline=1;size=15;rounded=0;sketch=0;rotation=90;" parent="1y4vjJ8w8GmTw1-7sExy-1" vertex="1">
          <mxGeometry x="1200" y="-120" width="60" height="1340" as="geometry" />
        </mxCell>
        <mxCell id="1y4vjJ8w8GmTw1-7sExy-88" value="业务总线" style="text;html=1;align=center;verticalAlign=middle;resizable=0;points=[];autosize=1;" parent="1y4vjJ8w8GmTw1-7sExy-1" vertex="1">
          <mxGeometry x="1180" y="540" width="60" height="20" as="geometry" />
        </mxCell>
        <mxCell id="1y4vjJ8w8GmTw1-7sExy-100" value="" style="edgeStyle=orthogonalEdgeStyle;curved=0;rounded=1;sketch=0;orthogonalLoop=1;jettySize=auto;html=1;startArrow=none;startFill=0;endArrow=classic;endFill=1;exitX=0.5;exitY=0;exitDx=0;exitDy=0;entryX=1.05;entryY=0.899;entryDx=0;entryDy=0;entryPerimeter=0;" parent="1y4vjJ8w8GmTw1-7sExy-1" source="1y4vjJ8w8GmTw1-7sExy-98" target="1y4vjJ8w8GmTw1-7sExy-87" edge="1">
          <mxGeometry relative="1" as="geometry">
            <mxPoint x="694" y="583" as="targetPoint" />
          </mxGeometry>
        </mxCell>
        <mxCell id="1y4vjJ8w8GmTw1-7sExy-98" value="飞巴企业应用网关" style="whiteSpace=wrap;html=1;sketch=1;rounded=1;" parent="1y4vjJ8w8GmTw1-7sExy-1" vertex="1">
          <mxGeometry x="610" y="700" width="170" height="110" as="geometry" />
        </mxCell>
        <mxCell id="1y4vjJ8w8GmTw1-7sExy-117" value="" style="edgeStyle=orthogonalEdgeStyle;curved=0;rounded=1;sketch=0;orthogonalLoop=1;jettySize=auto;html=1;startArrow=none;startFill=0;endArrow=classic;endFill=1;" parent="1y4vjJ8w8GmTw1-7sExy-1" source="1y4vjJ8w8GmTw1-7sExy-101" edge="1">
          <mxGeometry relative="1" as="geometry">
            <mxPoint x="880" y="579" as="targetPoint" />
          </mxGeometry>
        </mxCell>
        <mxCell id="1y4vjJ8w8GmTw1-7sExy-101" value="飞巴TMC应用网关" style="whiteSpace=wrap;html=1;sketch=1;rounded=1;" parent="1y4vjJ8w8GmTw1-7sExy-1" vertex="1">
          <mxGeometry x="800" y="700" width="160" height="110" as="geometry" />
        </mxCell>
        <mxCell id="1y4vjJ8w8GmTw1-7sExy-119" value="" style="edgeStyle=orthogonalEdgeStyle;curved=0;rounded=1;sketch=0;orthogonalLoop=1;jettySize=auto;html=1;startArrow=none;startFill=0;endArrow=classic;endFill=1;entryX=1;entryY=0.631;entryDx=0;entryDy=0;entryPerimeter=0;" parent="1y4vjJ8w8GmTw1-7sExy-1" source="1y4vjJ8w8GmTw1-7sExy-102" target="1y4vjJ8w8GmTw1-7sExy-87" edge="1">
          <mxGeometry relative="1" as="geometry">
            <mxPoint x="1055" y="620" as="targetPoint" />
          </mxGeometry>
        </mxCell>
        <mxCell id="1y4vjJ8w8GmTw1-7sExy-102" value="飞巴运营应用网关" style="whiteSpace=wrap;html=1;sketch=1;rounded=1;" parent="1y4vjJ8w8GmTw1-7sExy-1" vertex="1">
          <mxGeometry x="980" y="700" width="150" height="110" as="geometry" />
        </mxCell>
        <mxCell id="1y4vjJ8w8GmTw1-7sExy-121" value="" style="edgeStyle=orthogonalEdgeStyle;curved=0;rounded=1;sketch=0;orthogonalLoop=1;jettySize=auto;html=1;startArrow=none;startFill=0;endArrow=classic;endFill=1;entryX=1;entryY=0.5;entryDx=0;entryDy=0;entryPerimeter=0;" parent="1y4vjJ8w8GmTw1-7sExy-1" source="1y4vjJ8w8GmTw1-7sExy-103" target="1y4vjJ8w8GmTw1-7sExy-87" edge="1">
          <mxGeometry relative="1" as="geometry">
            <mxPoint x="1230" y="620" as="targetPoint" />
          </mxGeometry>
        </mxCell>
        <mxCell id="1y4vjJ8w8GmTw1-7sExy-103" value="飞巴CRM应用网关" style="whiteSpace=wrap;html=1;sketch=1;rounded=1;" parent="1y4vjJ8w8GmTw1-7sExy-1" vertex="1">
          <mxGeometry x="1150" y="700" width="160" height="110" as="geometry" />
        </mxCell>
        <mxCell id="1y4vjJ8w8GmTw1-7sExy-123" value="" style="edgeStyle=orthogonalEdgeStyle;curved=0;rounded=1;sketch=0;orthogonalLoop=1;jettySize=auto;html=1;startArrow=none;startFill=0;endArrow=classic;endFill=1;entryX=0.983;entryY=0.37;entryDx=0;entryDy=0;entryPerimeter=0;" parent="1y4vjJ8w8GmTw1-7sExy-1" source="1y4vjJ8w8GmTw1-7sExy-104" target="1y4vjJ8w8GmTw1-7sExy-87" edge="1">
          <mxGeometry relative="1" as="geometry">
            <mxPoint x="1405" y="620" as="targetPoint" />
          </mxGeometry>
        </mxCell>
        <mxCell id="1y4vjJ8w8GmTw1-7sExy-104" value="飞巴经营分析应用网关" style="whiteSpace=wrap;html=1;sketch=1;rounded=1;" parent="1y4vjJ8w8GmTw1-7sExy-1" vertex="1">
          <mxGeometry x="1330" y="700" width="150" height="110" as="geometry" />
        </mxCell>
        <mxCell id="1y4vjJ8w8GmTw1-7sExy-125" value="" style="edgeStyle=orthogonalEdgeStyle;curved=0;rounded=1;sketch=0;orthogonalLoop=1;jettySize=auto;html=1;startArrow=none;startFill=0;endArrow=classic;endFill=1;entryX=0.983;entryY=0.242;entryDx=0;entryDy=0;entryPerimeter=0;" parent="1y4vjJ8w8GmTw1-7sExy-1" source="1y4vjJ8w8GmTw1-7sExy-105" target="1y4vjJ8w8GmTw1-7sExy-87" edge="1">
          <mxGeometry relative="1" as="geometry">
            <mxPoint x="1573" y="580" as="targetPoint" />
          </mxGeometry>
        </mxCell>
        <mxCell id="1y4vjJ8w8GmTw1-7sExy-105" value="飞巴风控应用网关" style="whiteSpace=wrap;html=1;sketch=1;rounded=1;" parent="1y4vjJ8w8GmTw1-7sExy-1" vertex="1">
          <mxGeometry x="1500" y="700" width="150" height="110" as="geometry" />
        </mxCell>
        <mxCell id="1y4vjJ8w8GmTw1-7sExy-127" value="" style="edgeStyle=orthogonalEdgeStyle;curved=0;rounded=1;sketch=0;orthogonalLoop=1;jettySize=auto;html=1;startArrow=none;startFill=0;endArrow=classic;endFill=1;" parent="1y4vjJ8w8GmTw1-7sExy-1" source="1y4vjJ8w8GmTw1-7sExy-106" edge="1">
          <mxGeometry relative="1" as="geometry">
            <mxPoint x="1757" y="582" as="targetPoint" />
          </mxGeometry>
        </mxCell>
        <mxCell id="1y4vjJ8w8GmTw1-7sExy-106" value="飞巴其他应用网关" style="whiteSpace=wrap;html=1;sketch=1;rounded=1;" parent="1y4vjJ8w8GmTw1-7sExy-1" vertex="1">
          <mxGeometry x="1680" y="700" width="150" height="110" as="geometry" />
        </mxCell>
        <mxCell id="1y4vjJ8w8GmTw1-7sExy-109" value="" style="edgeStyle=orthogonalEdgeStyle;curved=0;rounded=1;sketch=0;orthogonalLoop=1;jettySize=auto;html=1;startArrow=none;startFill=0;endArrow=classic;endFill=1;" parent="1y4vjJ8w8GmTw1-7sExy-1" source="1y4vjJ8w8GmTw1-7sExy-107" target="1y4vjJ8w8GmTw1-7sExy-98" edge="1">
          <mxGeometry relative="1" as="geometry" />
        </mxCell>
        <mxCell id="1y4vjJ8w8GmTw1-7sExy-107" value="无线端" style="whiteSpace=wrap;html=1;sketch=1;rounded=1;" parent="1y4vjJ8w8GmTw1-7sExy-1" vertex="1">
          <mxGeometry x="520" y="890" width="110" height="90" as="geometry" />
        </mxCell>
        <mxCell id="1y4vjJ8w8GmTw1-7sExy-112" value="" style="edgeStyle=orthogonalEdgeStyle;curved=0;rounded=1;sketch=0;orthogonalLoop=1;jettySize=auto;html=1;startArrow=none;startFill=0;endArrow=classic;endFill=1;" parent="1y4vjJ8w8GmTw1-7sExy-1" source="1y4vjJ8w8GmTw1-7sExy-110" target="1y4vjJ8w8GmTw1-7sExy-98" edge="1">
          <mxGeometry relative="1" as="geometry" />
        </mxCell>
        <mxCell id="1y4vjJ8w8GmTw1-7sExy-110" value="H5端" style="whiteSpace=wrap;html=1;sketch=1;rounded=1;" parent="1y4vjJ8w8GmTw1-7sExy-1" vertex="1">
          <mxGeometry x="640" y="890" width="110" height="90" as="geometry" />
        </mxCell>
        <mxCell id="1y4vjJ8w8GmTw1-7sExy-115" value="" style="edgeStyle=orthogonalEdgeStyle;curved=0;rounded=1;sketch=0;orthogonalLoop=1;jettySize=auto;html=1;startArrow=none;startFill=0;endArrow=classic;endFill=1;" parent="1y4vjJ8w8GmTw1-7sExy-1" source="1y4vjJ8w8GmTw1-7sExy-113" target="1y4vjJ8w8GmTw1-7sExy-98" edge="1">
          <mxGeometry relative="1" as="geometry" />
        </mxCell>
        <mxCell id="1y4vjJ8w8GmTw1-7sExy-113" value="小程序端" style="whiteSpace=wrap;html=1;sketch=1;rounded=1;" parent="1y4vjJ8w8GmTw1-7sExy-1" vertex="1">
          <mxGeometry x="760" y="890" width="110" height="90" as="geometry" />
        </mxCell>
        <mxCell id="1y4vjJ8w8GmTw1-7sExy-134" value="&lt;b&gt;钉钉第三方企业应用接入及飞巴开放网关架构概念设计&lt;/b&gt;" style="text;html=1;align=left;verticalAlign=middle;resizable=0;points=[];autosize=1;" parent="1y4vjJ8w8GmTw1-7sExy-1" vertex="1">
          <mxGeometry x="40" y="40" width="300" height="20" as="geometry" />
        </mxCell>
      </root>
    </mxGraphModel>
  </diagram>
  <diagram name="architecture_first" id="cFMQS1bncqsufCwkgkjp">
    <mxGraphModel dx="1662" dy="738" grid="1" gridSize="10" guides="1" tooltips="1" connect="1" arrows="1" fold="1" page="1" pageScale="1" pageWidth="1200" pageHeight="1920" math="0" shadow="0">
      <root>
        <mxCell id="63b-HDoe1uY8zc0Dslbt-0" />
        <mxCell id="63b-HDoe1uY8zc0Dslbt-1" parent="63b-HDoe1uY8zc0Dslbt-0" />
        <mxCell id="63b-HDoe1uY8zc0Dslbt-2" value="" style="edgeStyle=orthogonalEdgeStyle;curved=0;rounded=1;sketch=0;orthogonalLoop=1;jettySize=auto;html=1;dashed=1;entryX=0;entryY=0.5;entryDx=0;entryDy=0;exitX=1;exitY=0.75;exitDx=0;exitDy=0;" edge="1" parent="63b-HDoe1uY8zc0Dslbt-1" source="63b-HDoe1uY8zc0Dslbt-3" target="63b-HDoe1uY8zc0Dslbt-5">
          <mxGeometry relative="1" as="geometry" />
        </mxCell>
        <mxCell id="63b-HDoe1uY8zc0Dslbt-3" value="钉钉系统" style="whiteSpace=wrap;html=1;sketch=1;rounded=1;" vertex="1" parent="63b-HDoe1uY8zc0Dslbt-1">
          <mxGeometry x="40" y="265" width="120" height="280" as="geometry" />
        </mxCell>
        <mxCell id="63b-HDoe1uY8zc0Dslbt-4" value="" style="edgeStyle=orthogonalEdgeStyle;curved=0;rounded=1;sketch=0;orthogonalLoop=1;jettySize=auto;html=1;endArrow=none;endFill=0;startArrow=classic;startFill=1;entryX=0.5;entryY=1;entryDx=0;entryDy=0;" edge="1" parent="63b-HDoe1uY8zc0Dslbt-1" source="63b-HDoe1uY8zc0Dslbt-5" target="63b-HDoe1uY8zc0Dslbt-10">
          <mxGeometry relative="1" as="geometry" />
        </mxCell>
        <mxCell id="63b-HDoe1uY8zc0Dslbt-5" value="聚石塔RDS" style="whiteSpace=wrap;html=1;sketch=1;rounded=1;" vertex="1" parent="63b-HDoe1uY8zc0Dslbt-1">
          <mxGeometry x="320" y="485" width="120" height="60" as="geometry" />
        </mxCell>
        <mxCell id="63b-HDoe1uY8zc0Dslbt-6" value="" style="edgeStyle=orthogonalEdgeStyle;curved=0;rounded=1;sketch=0;orthogonalLoop=1;jettySize=auto;html=1;entryX=0;entryY=0.75;entryDx=0;entryDy=0;exitX=1;exitY=0.75;exitDx=0;exitDy=0;dashed=1;" edge="1" parent="63b-HDoe1uY8zc0Dslbt-1" source="63b-HDoe1uY8zc0Dslbt-10" target="63b-HDoe1uY8zc0Dslbt-14">
          <mxGeometry relative="1" as="geometry" />
        </mxCell>
        <mxCell id="63b-HDoe1uY8zc0Dslbt-7" value="" style="edgeStyle=orthogonalEdgeStyle;curved=0;rounded=1;sketch=0;orthogonalLoop=1;jettySize=auto;html=1;startArrow=none;startFill=0;endArrow=classic;endFill=1;entryX=1;entryY=0.25;entryDx=0;entryDy=0;" edge="1" parent="63b-HDoe1uY8zc0Dslbt-1" source="63b-HDoe1uY8zc0Dslbt-10" target="63b-HDoe1uY8zc0Dslbt-3">
          <mxGeometry relative="1" as="geometry">
            <mxPoint x="240" y="345" as="targetPoint" />
          </mxGeometry>
        </mxCell>
        <mxCell id="63b-HDoe1uY8zc0Dslbt-8" value="" style="edgeStyle=orthogonalEdgeStyle;curved=0;rounded=1;sketch=0;orthogonalLoop=1;jettySize=auto;html=1;startArrow=none;startFill=0;endArrow=classic;endFill=1;exitX=0.25;exitY=0;exitDx=0;exitDy=0;" edge="1" parent="63b-HDoe1uY8zc0Dslbt-1" source="63b-HDoe1uY8zc0Dslbt-10" target="63b-HDoe1uY8zc0Dslbt-16">
          <mxGeometry relative="1" as="geometry" />
        </mxCell>
        <mxCell id="63b-HDoe1uY8zc0Dslbt-9" value="" style="edgeStyle=orthogonalEdgeStyle;curved=0;rounded=1;sketch=0;orthogonalLoop=1;jettySize=auto;html=1;startArrow=none;startFill=0;endArrow=classic;endFill=1;exitX=0.75;exitY=0;exitDx=0;exitDy=0;" edge="1" parent="63b-HDoe1uY8zc0Dslbt-1" source="63b-HDoe1uY8zc0Dslbt-10" target="63b-HDoe1uY8zc0Dslbt-17">
          <mxGeometry relative="1" as="geometry" />
        </mxCell>
        <mxCell id="63b-HDoe1uY8zc0Dslbt-10" value="聚石塔代理" style="whiteSpace=wrap;html=1;sketch=1;rounded=1;" vertex="1" parent="63b-HDoe1uY8zc0Dslbt-1">
          <mxGeometry x="320" y="315" width="120" height="60" as="geometry" />
        </mxCell>
        <mxCell id="63b-HDoe1uY8zc0Dslbt-11" value="" style="edgeStyle=orthogonalEdgeStyle;curved=0;rounded=1;sketch=0;orthogonalLoop=1;jettySize=auto;html=1;startArrow=none;startFill=0;endArrow=classic;endFill=1;entryX=1;entryY=0.25;entryDx=0;entryDy=0;exitX=0;exitY=0.25;exitDx=0;exitDy=0;" edge="1" parent="63b-HDoe1uY8zc0Dslbt-1" source="63b-HDoe1uY8zc0Dslbt-14" target="63b-HDoe1uY8zc0Dslbt-10">
          <mxGeometry relative="1" as="geometry">
            <mxPoint x="560" y="350" as="targetPoint" />
          </mxGeometry>
        </mxCell>
        <mxCell id="63b-HDoe1uY8zc0Dslbt-14" value="飞巴系统" style="whiteSpace=wrap;html=1;sketch=1;rounded=1;" vertex="1" parent="63b-HDoe1uY8zc0Dslbt-1">
          <mxGeometry x="640" y="265" width="120" height="170" as="geometry" />
        </mxCell>
        <mxCell id="63b-HDoe1uY8zc0Dslbt-15" value="RDS推送" style="text;html=1;align=center;verticalAlign=middle;resizable=0;points=[];autosize=1;" vertex="1" parent="63b-HDoe1uY8zc0Dslbt-1">
          <mxGeometry x="170" y="445" width="60" height="20" as="geometry" />
        </mxCell>
        <mxCell id="63b-HDoe1uY8zc0Dslbt-16" value="Redis Cluster" style="shape=cylinder3;whiteSpace=wrap;html=1;boundedLbl=1;backgroundOutline=1;size=15;rounded=0;sketch=0;" vertex="1" parent="63b-HDoe1uY8zc0Dslbt-1">
          <mxGeometry x="260" y="165" width="90" height="70" as="geometry" />
        </mxCell>
        <mxCell id="63b-HDoe1uY8zc0Dslbt-17" value="" style="shape=cylinder3;whiteSpace=wrap;html=1;boundedLbl=1;backgroundOutline=1;size=15;rounded=0;sketch=0;rotation=90;" vertex="1" parent="63b-HDoe1uY8zc0Dslbt-1">
          <mxGeometry x="435" y="140" width="60" height="120" as="geometry" />
        </mxCell>
        <mxCell id="63b-HDoe1uY8zc0Dslbt-18" value="MQ Cluster" style="text;html=1;align=center;verticalAlign=middle;resizable=0;points=[];autosize=1;" vertex="1" parent="63b-HDoe1uY8zc0Dslbt-1">
          <mxGeometry x="430" y="195" width="80" height="20" as="geometry" />
        </mxCell>
        <mxCell id="63b-HDoe1uY8zc0Dslbt-58" value="H5端" style="whiteSpace=wrap;html=1;sketch=1;rounded=1;" vertex="1" parent="63b-HDoe1uY8zc0Dslbt-1">
          <mxGeometry x="510" y="480" width="110" height="90" as="geometry" />
        </mxCell>
        <mxCell id="63b-HDoe1uY8zc0Dslbt-61" value="&lt;b&gt;钉钉第三方企业应用接入及飞巴开放网关架构概念设计&lt;/b&gt;" style="text;html=1;align=left;verticalAlign=middle;resizable=0;points=[];autosize=1;" vertex="1" parent="63b-HDoe1uY8zc0Dslbt-1">
          <mxGeometry x="40" y="40" width="300" height="20" as="geometry" />
        </mxCell>
      </root>
    </mxGraphModel>
  </diagram>
  <diagram name="architecture_second" id="LgBKMPx0ZVMOSe4jXBVE">
    <mxGraphModel dx="1422" dy="738" grid="1" gridSize="10" guides="1" tooltips="1" connect="1" arrows="1" fold="1" page="1" pageScale="1" pageWidth="1200" pageHeight="1920" math="0" shadow="0">
      <root>
        <mxCell id="Yxok16bI59C-U_OX65T--0" />
        <mxCell id="Yxok16bI59C-U_OX65T--1" parent="Yxok16bI59C-U_OX65T--0" />
        <mxCell id="Yxok16bI59C-U_OX65T--2" value="" style="edgeStyle=orthogonalEdgeStyle;curved=0;rounded=1;sketch=0;orthogonalLoop=1;jettySize=auto;html=1;dashed=1;entryX=0;entryY=0.5;entryDx=0;entryDy=0;exitX=1;exitY=0.75;exitDx=0;exitDy=0;" edge="1" parent="Yxok16bI59C-U_OX65T--1" source="Yxok16bI59C-U_OX65T--3" target="Yxok16bI59C-U_OX65T--5">
          <mxGeometry relative="1" as="geometry" />
        </mxCell>
        <mxCell id="Yxok16bI59C-U_OX65T--20" value="" style="edgeStyle=orthogonalEdgeStyle;rounded=1;orthogonalLoop=1;jettySize=auto;html=1;dashed=1;startArrow=none;startFill=0;endArrow=classic;endFill=1;entryX=0;entryY=0.5;entryDx=0;entryDy=0;exitX=0.5;exitY=0;exitDx=0;exitDy=0;" edge="1" parent="Yxok16bI59C-U_OX65T--1" source="Yxok16bI59C-U_OX65T--3" target="Yxok16bI59C-U_OX65T--17">
          <mxGeometry relative="1" as="geometry" />
        </mxCell>
        <mxCell id="Yxok16bI59C-U_OX65T--3" value="钉钉系统" style="whiteSpace=wrap;html=1;sketch=1;rounded=1;" vertex="1" parent="Yxok16bI59C-U_OX65T--1">
          <mxGeometry x="40" y="205" width="120" height="280" as="geometry" />
        </mxCell>
        <mxCell id="Yxok16bI59C-U_OX65T--4" value="" style="edgeStyle=orthogonalEdgeStyle;curved=0;rounded=1;sketch=0;orthogonalLoop=1;jettySize=auto;html=1;endArrow=none;endFill=0;startArrow=classic;startFill=1;entryX=0.5;entryY=1;entryDx=0;entryDy=0;" edge="1" parent="Yxok16bI59C-U_OX65T--1" source="Yxok16bI59C-U_OX65T--5" target="Yxok16bI59C-U_OX65T--10">
          <mxGeometry relative="1" as="geometry" />
        </mxCell>
        <mxCell id="Yxok16bI59C-U_OX65T--5" value="聚石塔RDS" style="whiteSpace=wrap;html=1;sketch=1;rounded=1;" vertex="1" parent="Yxok16bI59C-U_OX65T--1">
          <mxGeometry x="320" y="365" width="120" height="60" as="geometry" />
        </mxCell>
        <mxCell id="Yxok16bI59C-U_OX65T--6" value="" style="edgeStyle=orthogonalEdgeStyle;curved=0;rounded=1;sketch=0;orthogonalLoop=1;jettySize=auto;html=1;entryX=0;entryY=0.75;entryDx=0;entryDy=0;exitX=1;exitY=0.75;exitDx=0;exitDy=0;dashed=1;" edge="1" parent="Yxok16bI59C-U_OX65T--1" source="Yxok16bI59C-U_OX65T--10" target="Yxok16bI59C-U_OX65T--12">
          <mxGeometry relative="1" as="geometry" />
        </mxCell>
        <mxCell id="Yxok16bI59C-U_OX65T--7" value="" style="edgeStyle=orthogonalEdgeStyle;curved=0;rounded=1;sketch=0;orthogonalLoop=1;jettySize=auto;html=1;startArrow=none;startFill=0;endArrow=classic;endFill=1;entryX=1;entryY=0.25;entryDx=0;entryDy=0;" edge="1" parent="Yxok16bI59C-U_OX65T--1" source="Yxok16bI59C-U_OX65T--10" target="Yxok16bI59C-U_OX65T--3">
          <mxGeometry relative="1" as="geometry">
            <mxPoint x="240" y="285" as="targetPoint" />
          </mxGeometry>
        </mxCell>
        <mxCell id="Yxok16bI59C-U_OX65T--19" value="" style="edgeStyle=orthogonalEdgeStyle;rounded=1;orthogonalLoop=1;jettySize=auto;html=1;entryX=0.5;entryY=1;entryDx=0;entryDy=0;exitX=0.5;exitY=0;exitDx=0;exitDy=0;startArrow=classic;startFill=1;endArrow=none;endFill=0;dashed=1;" edge="1" parent="Yxok16bI59C-U_OX65T--1" source="Yxok16bI59C-U_OX65T--10" target="Yxok16bI59C-U_OX65T--17">
          <mxGeometry relative="1" as="geometry">
            <Array as="points">
              <mxPoint x="380" y="230" />
              <mxPoint x="380" y="230" />
            </Array>
          </mxGeometry>
        </mxCell>
        <mxCell id="Yxok16bI59C-U_OX65T--10" value="聚石塔代理" style="whiteSpace=wrap;html=1;sketch=1;rounded=1;" vertex="1" parent="Yxok16bI59C-U_OX65T--1">
          <mxGeometry x="320" y="255" width="120" height="60" as="geometry" />
        </mxCell>
        <mxCell id="Yxok16bI59C-U_OX65T--11" value="" style="edgeStyle=orthogonalEdgeStyle;curved=0;rounded=1;sketch=0;orthogonalLoop=1;jettySize=auto;html=1;startArrow=none;startFill=0;endArrow=classic;endFill=1;entryX=1;entryY=0.25;entryDx=0;entryDy=0;exitX=0;exitY=0.25;exitDx=0;exitDy=0;" edge="1" parent="Yxok16bI59C-U_OX65T--1" source="Yxok16bI59C-U_OX65T--12" target="Yxok16bI59C-U_OX65T--10">
          <mxGeometry relative="1" as="geometry">
            <mxPoint x="560" y="290" as="targetPoint" />
          </mxGeometry>
        </mxCell>
        <mxCell id="Yxok16bI59C-U_OX65T--12" value="飞巴系统" style="whiteSpace=wrap;html=1;sketch=1;rounded=1;" vertex="1" parent="Yxok16bI59C-U_OX65T--1">
          <mxGeometry x="640" y="205" width="120" height="170" as="geometry" />
        </mxCell>
        <mxCell id="Yxok16bI59C-U_OX65T--13" value="RDS推送" style="text;html=1;align=center;verticalAlign=middle;resizable=0;points=[];autosize=1;" vertex="1" parent="Yxok16bI59C-U_OX65T--1">
          <mxGeometry x="170" y="385" width="60" height="20" as="geometry" />
        </mxCell>
        <mxCell id="Yxok16bI59C-U_OX65T--23" value="" style="edgeStyle=orthogonalEdgeStyle;rounded=1;orthogonalLoop=1;jettySize=auto;html=1;dashed=1;startArrow=none;startFill=0;endArrow=classic;endFill=1;entryX=0.5;entryY=0;entryDx=0;entryDy=0;exitX=1;exitY=0.5;exitDx=0;exitDy=0;" edge="1" parent="Yxok16bI59C-U_OX65T--1" source="Yxok16bI59C-U_OX65T--17" target="Yxok16bI59C-U_OX65T--12">
          <mxGeometry relative="1" as="geometry">
            <mxPoint x="710" y="160" as="targetPoint" />
            <Array as="points">
              <mxPoint x="700" y="135" />
            </Array>
          </mxGeometry>
        </mxCell>
        <mxCell id="Yxok16bI59C-U_OX65T--17" value="H5端" style="whiteSpace=wrap;html=1;sketch=1;rounded=1;" vertex="1" parent="Yxok16bI59C-U_OX65T--1">
          <mxGeometry x="320" y="100" width="120" height="70" as="geometry" />
        </mxCell>
        <mxCell id="Yxok16bI59C-U_OX65T--18" value="&lt;b&gt;飞巴钉钉第三方企业应用业务架构&lt;/b&gt;" style="text;html=1;align=left;verticalAlign=middle;resizable=0;points=[];autosize=1;" vertex="1" parent="Yxok16bI59C-U_OX65T--1">
          <mxGeometry x="40" y="40" width="200" height="20" as="geometry" />
        </mxCell>
        <mxCell id="XJmIs8UpASRt5y6KN_md-0" value="跳转" style="text;html=1;align=center;verticalAlign=middle;resizable=0;points=[];autosize=1;" vertex="1" parent="Yxok16bI59C-U_OX65T--1">
          <mxGeometry x="60" y="120" width="40" height="20" as="geometry" />
        </mxCell>
        <mxCell id="XJmIs8UpASRt5y6KN_md-1" value="免登" style="text;html=1;align=center;verticalAlign=middle;resizable=0;points=[];autosize=1;" vertex="1" parent="Yxok16bI59C-U_OX65T--1">
          <mxGeometry x="380" y="170" width="40" height="20" as="geometry" />
        </mxCell>
        <mxCell id="XJmIs8UpASRt5y6KN_md-2" value="业务处理" style="text;html=1;align=center;verticalAlign=middle;resizable=0;points=[];autosize=1;" vertex="1" parent="Yxok16bI59C-U_OX65T--1">
          <mxGeometry x="530" y="110" width="60" height="20" as="geometry" />
        </mxCell>
        <mxCell id="XJmIs8UpASRt5y6KN_md-3" value="抓取" style="text;html=1;align=center;verticalAlign=middle;resizable=0;points=[];autosize=1;" vertex="1" parent="Yxok16bI59C-U_OX65T--1">
          <mxGeometry x="380" y="320" width="40" height="20" as="geometry" />
        </mxCell>
        <mxCell id="XJmIs8UpASRt5y6KN_md-4" value="推送" style="text;html=1;align=center;verticalAlign=middle;resizable=0;points=[];autosize=1;" vertex="1" parent="Yxok16bI59C-U_OX65T--1">
          <mxGeometry x="490" y="310" width="40" height="20" as="geometry" />
        </mxCell>
        <mxCell id="XJmIs8UpASRt5y6KN_md-5" value="提交" style="text;html=1;align=center;verticalAlign=middle;resizable=0;points=[];autosize=1;" vertex="1" parent="Yxok16bI59C-U_OX65T--1">
          <mxGeometry x="530" y="220" width="40" height="20" as="geometry" />
        </mxCell>
        <mxCell id="XJmIs8UpASRt5y6KN_md-6" value="提交" style="text;html=1;align=center;verticalAlign=middle;resizable=0;points=[];autosize=1;" vertex="1" parent="Yxok16bI59C-U_OX65T--1">
          <mxGeometry x="210" y="240" width="40" height="20" as="geometry" />
        </mxCell>
      </root>
    </mxGraphModel>
  </diagram>
  <diagram name="architecture_3rd" id="vJrH_ZbE5-9qhnQLdg-9">
    <mxGraphModel dx="1422" dy="738" grid="1" gridSize="10" guides="1" tooltips="1" connect="1" arrows="1" fold="1" page="1" pageScale="1" pageWidth="1200" pageHeight="1920" math="0" shadow="0">
      <root>
        <mxCell id="qrvZA6om9SuFlZTzOPHU-0" />
        <mxCell id="qrvZA6om9SuFlZTzOPHU-1" parent="qrvZA6om9SuFlZTzOPHU-0" />
        <mxCell id="qrvZA6om9SuFlZTzOPHU-2" value="" style="edgeStyle=orthogonalEdgeStyle;curved=0;rounded=1;sketch=0;orthogonalLoop=1;jettySize=auto;html=1;dashed=1;entryX=0;entryY=0.5;entryDx=0;entryDy=0;exitX=1;exitY=0.75;exitDx=0;exitDy=0;" edge="1" parent="qrvZA6om9SuFlZTzOPHU-1" source="qrvZA6om9SuFlZTzOPHU-4" target="qrvZA6om9SuFlZTzOPHU-6">
          <mxGeometry relative="1" as="geometry" />
        </mxCell>
        <mxCell id="qrvZA6om9SuFlZTzOPHU-3" value="" style="edgeStyle=orthogonalEdgeStyle;rounded=1;orthogonalLoop=1;jettySize=auto;html=1;dashed=1;startArrow=none;startFill=0;endArrow=classic;endFill=1;entryX=0;entryY=0.5;entryDx=0;entryDy=0;" edge="1" parent="qrvZA6om9SuFlZTzOPHU-1" source="qrvZA6om9SuFlZTzOPHU-4" target="qrvZA6om9SuFlZTzOPHU-19">
          <mxGeometry relative="1" as="geometry" />
        </mxCell>
        <mxCell id="qrvZA6om9SuFlZTzOPHU-4" value="钉钉系统" style="whiteSpace=wrap;html=1;sketch=1;rounded=1;" vertex="1" parent="qrvZA6om9SuFlZTzOPHU-1">
          <mxGeometry x="40" y="295" width="120" height="280" as="geometry" />
        </mxCell>
        <mxCell id="qrvZA6om9SuFlZTzOPHU-5" value="" style="edgeStyle=orthogonalEdgeStyle;curved=0;rounded=1;sketch=0;orthogonalLoop=1;jettySize=auto;html=1;endArrow=none;endFill=0;startArrow=classic;startFill=1;entryX=0.5;entryY=1;entryDx=0;entryDy=0;" edge="1" parent="qrvZA6om9SuFlZTzOPHU-1" source="qrvZA6om9SuFlZTzOPHU-6" target="qrvZA6om9SuFlZTzOPHU-12">
          <mxGeometry relative="1" as="geometry" />
        </mxCell>
        <mxCell id="qrvZA6om9SuFlZTzOPHU-6" value="聚石塔RDS" style="whiteSpace=wrap;html=1;sketch=1;rounded=1;" vertex="1" parent="qrvZA6om9SuFlZTzOPHU-1">
          <mxGeometry x="320" y="455" width="120" height="60" as="geometry" />
        </mxCell>
        <mxCell id="qrvZA6om9SuFlZTzOPHU-7" value="" style="edgeStyle=orthogonalEdgeStyle;curved=0;rounded=1;sketch=0;orthogonalLoop=1;jettySize=auto;html=1;entryX=0;entryY=0.75;entryDx=0;entryDy=0;exitX=1;exitY=0.75;exitDx=0;exitDy=0;dashed=1;" edge="1" parent="qrvZA6om9SuFlZTzOPHU-1" source="qrvZA6om9SuFlZTzOPHU-12" target="qrvZA6om9SuFlZTzOPHU-14">
          <mxGeometry relative="1" as="geometry" />
        </mxCell>
        <mxCell id="qrvZA6om9SuFlZTzOPHU-8" value="" style="edgeStyle=orthogonalEdgeStyle;curved=0;rounded=1;sketch=0;orthogonalLoop=1;jettySize=auto;html=1;startArrow=none;startFill=0;endArrow=classic;endFill=1;entryX=1;entryY=0.25;entryDx=0;entryDy=0;" edge="1" parent="qrvZA6om9SuFlZTzOPHU-1" source="qrvZA6om9SuFlZTzOPHU-12" target="qrvZA6om9SuFlZTzOPHU-4">
          <mxGeometry relative="1" as="geometry">
            <mxPoint x="240" y="375" as="targetPoint" />
          </mxGeometry>
        </mxCell>
        <mxCell id="qrvZA6om9SuFlZTzOPHU-9" value="" style="edgeStyle=orthogonalEdgeStyle;curved=0;rounded=1;sketch=0;orthogonalLoop=1;jettySize=auto;html=1;startArrow=none;startFill=0;endArrow=classic;endFill=1;exitX=0.5;exitY=0;exitDx=0;exitDy=0;" edge="1" parent="qrvZA6om9SuFlZTzOPHU-1" source="qrvZA6om9SuFlZTzOPHU-12" target="qrvZA6om9SuFlZTzOPHU-16">
          <mxGeometry relative="1" as="geometry" />
        </mxCell>
        <mxCell id="qrvZA6om9SuFlZTzOPHU-10" value="" style="edgeStyle=orthogonalEdgeStyle;curved=0;rounded=1;sketch=0;orthogonalLoop=1;jettySize=auto;html=1;startArrow=none;startFill=0;endArrow=classic;endFill=1;exitX=0.75;exitY=0;exitDx=0;exitDy=0;" edge="1" parent="qrvZA6om9SuFlZTzOPHU-1" source="qrvZA6om9SuFlZTzOPHU-12" target="qrvZA6om9SuFlZTzOPHU-17">
          <mxGeometry relative="1" as="geometry">
            <Array as="points">
              <mxPoint x="410" y="300" />
              <mxPoint x="550" y="300" />
            </Array>
          </mxGeometry>
        </mxCell>
        <mxCell id="qrvZA6om9SuFlZTzOPHU-11" value="" style="edgeStyle=orthogonalEdgeStyle;rounded=1;orthogonalLoop=1;jettySize=auto;html=1;entryX=0.5;entryY=1;entryDx=0;entryDy=0;exitX=0.25;exitY=0;exitDx=0;exitDy=0;startArrow=classic;startFill=1;endArrow=none;endFill=0;dashed=1;" edge="1" parent="qrvZA6om9SuFlZTzOPHU-1" source="qrvZA6om9SuFlZTzOPHU-12" target="qrvZA6om9SuFlZTzOPHU-19">
          <mxGeometry relative="1" as="geometry">
            <Array as="points">
              <mxPoint x="350" y="300" />
              <mxPoint x="220" y="300" />
            </Array>
          </mxGeometry>
        </mxCell>
        <mxCell id="qrvZA6om9SuFlZTzOPHU-12" value="聚石塔代理" style="whiteSpace=wrap;html=1;sketch=1;rounded=1;" vertex="1" parent="qrvZA6om9SuFlZTzOPHU-1">
          <mxGeometry x="320" y="345" width="120" height="60" as="geometry" />
        </mxCell>
        <mxCell id="qrvZA6om9SuFlZTzOPHU-13" value="" style="edgeStyle=orthogonalEdgeStyle;curved=0;rounded=1;sketch=0;orthogonalLoop=1;jettySize=auto;html=1;startArrow=none;startFill=0;endArrow=classic;endFill=1;entryX=1;entryY=0.25;entryDx=0;entryDy=0;exitX=0;exitY=0.25;exitDx=0;exitDy=0;" edge="1" parent="qrvZA6om9SuFlZTzOPHU-1" source="qrvZA6om9SuFlZTzOPHU-14" target="qrvZA6om9SuFlZTzOPHU-12">
          <mxGeometry relative="1" as="geometry">
            <mxPoint x="560" y="380" as="targetPoint" />
          </mxGeometry>
        </mxCell>
        <mxCell id="qrvZA6om9SuFlZTzOPHU-14" value="飞巴系统" style="whiteSpace=wrap;html=1;sketch=1;rounded=1;" vertex="1" parent="qrvZA6om9SuFlZTzOPHU-1">
          <mxGeometry x="640" y="295" width="120" height="170" as="geometry" />
        </mxCell>
        <mxCell id="qrvZA6om9SuFlZTzOPHU-15" value="RDS推送" style="text;html=1;align=center;verticalAlign=middle;resizable=0;points=[];autosize=1;" vertex="1" parent="qrvZA6om9SuFlZTzOPHU-1">
          <mxGeometry x="170" y="475" width="60" height="20" as="geometry" />
        </mxCell>
        <mxCell id="qrvZA6om9SuFlZTzOPHU-16" value="Redis Cluster" style="shape=cylinder3;whiteSpace=wrap;html=1;boundedLbl=1;backgroundOutline=1;size=15;rounded=0;sketch=0;" vertex="1" parent="qrvZA6om9SuFlZTzOPHU-1">
          <mxGeometry x="335" y="155" width="90" height="70" as="geometry" />
        </mxCell>
        <mxCell id="qrvZA6om9SuFlZTzOPHU-17" value="MQ Cluster" style="shape=cylinder3;whiteSpace=wrap;html=1;boundedLbl=1;backgroundOutline=1;size=15;rounded=0;sketch=0;rotation=90;" vertex="1" parent="qrvZA6om9SuFlZTzOPHU-1">
          <mxGeometry x="520" y="130" width="60" height="120" as="geometry" />
        </mxCell>
        <mxCell id="qrvZA6om9SuFlZTzOPHU-18" value="" style="edgeStyle=orthogonalEdgeStyle;rounded=1;orthogonalLoop=1;jettySize=auto;html=1;dashed=1;startArrow=none;startFill=0;endArrow=classic;endFill=1;entryX=0.5;entryY=0;entryDx=0;entryDy=0;" edge="1" parent="qrvZA6om9SuFlZTzOPHU-1" source="qrvZA6om9SuFlZTzOPHU-19" target="qrvZA6om9SuFlZTzOPHU-14">
          <mxGeometry relative="1" as="geometry">
            <mxPoint x="710" y="250" as="targetPoint" />
            <Array as="points">
              <mxPoint x="220" y="110" />
              <mxPoint x="700" y="110" />
            </Array>
          </mxGeometry>
        </mxCell>
        <mxCell id="qrvZA6om9SuFlZTzOPHU-19" value="H5端" style="whiteSpace=wrap;html=1;sketch=1;rounded=1;" vertex="1" parent="qrvZA6om9SuFlZTzOPHU-1">
          <mxGeometry x="160" y="155" width="120" height="70" as="geometry" />
        </mxCell>
        <mxCell id="qrvZA6om9SuFlZTzOPHU-20" value="&lt;b&gt;钉钉第三方企业应用业务架构&lt;/b&gt;" style="text;html=1;align=left;verticalAlign=middle;resizable=0;points=[];autosize=1;" vertex="1" parent="qrvZA6om9SuFlZTzOPHU-1">
          <mxGeometry x="40" y="40" width="170" height="20" as="geometry" />
        </mxCell>
      </root>
    </mxGraphModel>
  </diagram>
</mxfile>
